<svg xmlns="http://www.w3.org/2000/svg" viewBox="0 0 64 64" width="64" height="64">
  <!-- Roof -->
  <path d="M 4,34 L 32,8 L 60,34" fill="none" stroke="#50a8e5" stroke-width="4.5" stroke-linecap="round" stroke-linejoin="round"/>
  <!-- Window -->
  <g transform="translate(22, 18)">
    <rect x="0" y="0" width="14" height="12" fill="none" stroke="#50a8e5" stroke-width="2.5" rx="1"/>
    <line x1="0" y1="6" x2="14" y2="6" stroke="#50a8e5" stroke-width="1.8"/>
    <line x1="7" y1="0" x2="7" y2="12" stroke="#50a8e5" stroke-width="1.8"/>
    <rect x="1.5" y="1" width="4" height="4" fill="#50a8e5" opacity="0.3" rx="0.5"/>
    <rect x="8.5" y="1" width="4" height="4" fill="#50a8e5" opacity="0.3" rx="0.5"/>
    <rect x="1.5" y="7" width="4" height="4" fill="#50a8e5" opacity="0.3" rx="0.5"/>
    <rect x="8.5" y="7" width="4" height="4" fill="#50a8e5" opacity="0.3" rx="0.5"/>
  </g>
  <!-- Copper H -->
  <g transform="translate(10, 34)">
    <rect x="0" y="0" width="6" height="28" fill="#c27647" rx="0.5"/>
    <rect x="16" y="0" width="6" height="28" fill="#c27647" rx="0.5"/>
    <rect x="6" y="10" width="10" height="6" fill="#c27647" rx="0.5"/>
    <rect x="-2" y="0" width="10" height="3" fill="#c27647" rx="0.5"/>
    <rect x="14" y="0" width="10" height="3" fill="#c27647" rx="0.5"/>
    <rect x="-2" y="25" width="10" height="3" fill="#c27647" rx="0.5"/>
    <rect x="14" y="25" width="10" height="3" fill="#c27647" rx="0.5"/>
  </g>
</svg>
