<svg xmlns="http://www.w3.org/2000/svg" viewBox="0 0 360 200" width="280" height="156">
  <!-- Roof -->
  <path d="M 28,82 L 100,28 L 172,82" fill="none" stroke="#50a8e5" stroke-width="5.5" stroke-linecap="round" stroke-linejoin="round"/>
  <!-- Window -->
  <g transform="translate(78, 52)">
    <rect x="0" y="0" width="22" height="20" fill="none" stroke="#50a8e5" stroke-width="3.5" rx="1.5"/>
    <line x1="0" y1="10" x2="22" y2="10" stroke="#50a8e5" stroke-width="2.5"/>
    <line x1="11" y1="0" x2="11" y2="20" stroke="#50a8e5" stroke-width="2.5"/>
    <rect x="2.5" y="2" width="6" height="6" fill="#50a8e5" opacity="0.3" rx="0.5"/>
    <rect x="13.5" y="2" width="6" height="6" fill="#50a8e5" opacity="0.3" rx="0.5"/>
    <rect x="2.5" y="12" width="6" height="6" fill="#50a8e5" opacity="0.3" rx="0.5"/>
    <rect x="13.5" y="12" width="6" height="6" fill="#50a8e5" opacity="0.3" rx="0.5"/>
  </g>
  <!-- Copper H -->
  <g transform="translate(30, 78)">
    <rect x="0" y="0" width="12" height="60" fill="#c27647" rx="1"/>
    <rect x="32" y="0" width="12" height="60" fill="#c27647" rx="1"/>
    <rect x="12" y="22" width="20" height="12" fill="#c27647" rx="1"/>
    <rect x="-4" y="0" width="20" height="5" fill="#c27647" rx="1"/>
    <rect x="28" y="0" width="20" height="5" fill="#c27647" rx="1"/>
    <rect x="-4" y="55" width="20" height="5" fill="#c27647" rx="1"/>
    <rect x="28" y="55" width="20" height="5" fill="#c27647" rx="1"/>
  </g>
  <!-- Text: OME (for light backgrounds) -->
  <text x="80" y="130" font-family="Georgia, 'Times New Roman', serif" font-size="50" font-weight="700" fill="#93918A" letter-spacing="1">OME</text>
  <!-- Text: SOLUTIONS -->
  <text x="30" y="170" font-family="Georgia, 'Times New Roman', serif" font-size="40" font-weight="700" fill="#50a8e5" letter-spacing="5" stroke="#4895cc" stroke-width="0.5">SOLUTIONS</text>
  <!-- Text: NC LLC -->
  <text x="115" y="192" font-family="Georgia, 'Times New Roman', serif" font-size="14" font-weight="400" fill="#93918A" letter-spacing="3">NC LLC</text>
</svg>
